<?xml version="1.0" encoding="UTF-8" standalone="no" ?>
<!DOCTYPE svg PUBLIC "-//W3C//DTD SVG 1.1//EN" "http://www.w3.org/Graphics/SVG/1.1/DTD/svg11.dtd">
<svg xmlns="http://www.w3.org/2000/svg" xmlns:xlink="http://www.w3.org/1999/xlink" version="1.1" width="1080" height="1080" viewBox="0 0 1080 1080" xml:space="preserve">
<desc>Created with Fabric.js 5.2.4</desc>
<defs>
</defs>
<g transform="matrix(1 0 0 1 540 540)" id="82154349-bb3d-41a3-bcbf-18aaa24999cf"  >
</g>
<g transform="matrix(1 0 0 1 540 540)" id="7e9635bc-ff63-4abe-bb81-baa531d2180e"  >
<rect style="stroke: none; stroke-width: 1; stroke-dasharray: none; stroke-linecap: butt; stroke-dashoffset: 0; stroke-linejoin: miter; stroke-miterlimit: 4; fill: rgb(255,255,255); fill-rule: nonzero; opacity: 1; visibility: hidden;" vector-effect="non-scaling-stroke"  x="-540" y="-540" rx="0" ry="0" width="1080" height="1080" />
</g>
<g transform="matrix(1 0 0 1 540 547)"  >
<path style="stroke: none; stroke-width: 1; stroke-dasharray: none; stroke-linecap: butt; stroke-dashoffset: 0; stroke-linejoin: miter; stroke-miterlimit: 4; fill: rgb(2,6,23); fill-rule: nonzero; opacity: 1;" vector-effect="non-scaling-stroke"  transform=" translate(-46.5, -23)" d="M 1.344 28.01 C 0.9080000000000001 28.01 0.5940000000000001 27.94 0.40000000000000013 27.799000000000003 C 0.21597011925288265 27.67360156012569 0.09102043438596247 27.47859338143165 0.05399999999999999 27.259000000000004 C 0.01648635027413075 27.023215322983514 -0.0015745103531527305 26.784745070626965 7.771561172376096e-16 26.546 L 0 19.801 C 0 19.543999999999997 0.018 19.313 0.054 19.107 C 0.1005013580929185 18.891784240023927 0.23170042192005816 18.704357005985155 0.418 18.587 C 0.611 18.445 0.9319999999999999 18.375 1.38 18.375 C 1.8279999999999998 18.375 2.155 18.471 2.3609999999999998 18.664 C 2.5669999999999997 18.844 2.67 19.146 2.67 19.57 L 2.434 19.782 C 2.458 19.717 2.5300000000000002 19.608 2.652 19.454 C 2.7720000000000002 19.3 2.93 19.139 3.124 18.972 C 3.317 18.805 3.541 18.664 3.7960000000000003 18.548000000000002 C 4.062018984423728 18.419925739912458 4.353760974637478 18.354258140708424 4.648999999999999 18.356 C 5.049 18.356 5.406 18.42 5.721 18.548000000000002 C 6.048 18.664 6.338 18.844 6.593 19.088 C 6.859 19.319000000000003 7.089 19.615000000000002 7.2829999999999995 19.974 C 7.452999999999999 19.717 7.6579999999999995 19.467 7.8999999999999995 19.223 C 8.142 18.979 8.427 18.773 8.754 18.605999999999998 C 9.093 18.438999999999997 9.468 18.355999999999998 9.879999999999999 18.355999999999998 C 10.581999999999999 18.355999999999998 11.174999999999999 18.548 11.659999999999998 18.933999999999997 C 12.155999999999999 19.305999999999997 12.530999999999999 19.845999999999997 12.785999999999998 20.551999999999996 C 13.039999999999997 21.258999999999997 13.166999999999998 22.112999999999996 13.166999999999998 23.115999999999996 L 13.166999999999998 26.565999999999995 C 13.166999999999998 26.808999999999994 13.142999999999999 27.046999999999997 13.094999999999999 27.277999999999995 C 13.057979565614037 27.497593381431642 12.933029880747116 27.69260156012568 12.748999999999999 27.817999999999994 C 12.556 27.945999999999994 12.235 28.010999999999996 11.786999999999999 28.010999999999996 C 11.338999999999999 28.010999999999996 11.017999999999999 27.939999999999994 10.824 27.798999999999996 C 10.647870248517973 27.666283595516106 10.525403751473208 27.47459690448952 10.479 27.258999999999997 C 10.442499170702755 27.023097697528392 10.424444472708457 26.78470881475182 10.424999999999999 26.545999999999996 L 10.424999999999999 23.095999999999997 C 10.424999999999999 22.697999999999997 10.382 22.363999999999997 10.297999999999998 22.093999999999998 C 10.212999999999997 21.823999999999998 10.079999999999998 21.618999999999996 9.897999999999998 21.476999999999997 C 9.727999999999998 21.322999999999997 9.510999999999997 21.246999999999996 9.243999999999998 21.246999999999996 C 8.965999999999998 21.246999999999996 8.729999999999999 21.316999999999997 8.535999999999998 21.457999999999995 C 8.341999999999997 21.586999999999996 8.195999999999998 21.791999999999994 8.099999999999998 22.074999999999996 C 8.002999999999998 22.344999999999995 7.954999999999998 22.691999999999997 7.954999999999998 23.114999999999995 L 7.954999999999998 26.564999999999994 C 7.954999999999998 26.821999999999996 7.924999999999998 27.065999999999995 7.863999999999998 27.297999999999995 C 7.800575704528487 27.520557474469815 7.658415836330624 27.712473296536928 7.463999999999998 27.837999999999994 C 7.270999999999998 27.965999999999994 6.955999999999998 28.023999999999994 6.519999999999998 28.010999999999992 C 6.083999999999998 27.99799999999999 5.774999999999998 27.920999999999992 5.593999999999998 27.778999999999993 C 5.418855254420834 27.648435738638668 5.301541825642589 27.454707140656243 5.266999999999998 27.238999999999994 C 5.230680368297475 27.009780897857564 5.212291288661736 26.778078494447247 5.211999999999999 26.545999999999992 L 5.211999999999998 23.095999999999993 C 5.211999999999998 22.697999999999993 5.169999999999998 22.363999999999994 5.084999999999998 22.093999999999994 C 4.999999999999998 21.811999999999994 4.872999999999998 21.599999999999994 4.703999999999998 21.457999999999995 C 4.533999999999998 21.316999999999997 4.309999999999998 21.245999999999995 4.031999999999998 21.245999999999995 C 3.7289999999999983 21.245999999999995 3.480999999999998 21.329999999999995 3.286999999999998 21.495999999999995 C 3.0835953860400025 21.67768505554763 2.9329703865216596 21.910877428655155 2.8509999999999978 22.170999999999996 C 2.766999999999998 22.440999999999995 2.7239999999999984 22.749999999999996 2.7239999999999984 23.095999999999997 L 2.7239999999999984 26.565999999999995 C 2.7239999999999984 26.821999999999996 2.6999999999999984 27.059999999999995 2.6519999999999984 27.277999999999995 C 2.6153335645983447 27.497470550671906 2.4907370279230774 27.692491216772325 2.3069999999999986 27.817999999999994 C 2.1129999999999987 27.945999999999994 1.7919999999999985 28.010999999999996 1.3439999999999985 28.010999999999996 Z M 22.007 27.991 C 21.559 27.991 21.226000000000003 27.908 21.008000000000003 27.741 C 20.81294945425607 27.59600066874738 20.698284161018286 27.367041167363197 20.699 27.124 L 20.881 26.796999999999997 C 20.808 26.924999999999997 20.669 27.086 20.463 27.278 C 20.257 27.458 19.991 27.625 19.664 27.779 C 19.337 27.921 18.932000000000002 27.991 18.447000000000003 27.991 C 17.890000000000004 27.991 17.357000000000003 27.863 16.849000000000004 27.605999999999998 C 16.342841307531767 27.34138771228968 15.892586917871974 26.98145584725244 15.523000000000003 26.546 C 15.132728374950565 26.078614719003117 14.820078112229758 25.551566057980246 14.597000000000001 24.985 C 14.377830930667491 24.399903584095135 14.267023963167818 23.779791197170358 14.270000000000003 23.155 C 14.270000000000003 22.525000000000002 14.380000000000003 21.927 14.597000000000003 21.362000000000002 C 14.827000000000004 20.784000000000002 15.136000000000003 20.276000000000003 15.523000000000003 19.839000000000002 C 15.923000000000004 19.389000000000003 16.371000000000002 19.036 16.867000000000004 18.779000000000003 C 17.354628053720578 18.524371744567436 17.89689677530668 18.39223664468728 18.447000000000003 18.394000000000002 C 18.895000000000003 18.394000000000002 19.277 18.464000000000002 19.591 18.606 C 19.906000000000002 18.734 20.167 18.889000000000003 20.372 19.068 C 20.59 19.248 20.754 19.422 20.862 19.588 L 20.718 19.319000000000003 C 20.705 19.011000000000003 20.802 18.779000000000003 21.008 18.625000000000004 C 21.226 18.458000000000002 21.564999999999998 18.375000000000004 22.025 18.375000000000004 C 22.461 18.375000000000004 22.77 18.445000000000004 22.950999999999997 18.587000000000003 C 23.138244588464683 18.717710576007157 23.263108714210937 18.9200266522163 23.295999999999996 19.146000000000004 C 23.344999999999995 19.376000000000005 23.368999999999996 19.621000000000006 23.368999999999996 19.878000000000004 L 23.368999999999996 26.527000000000005 C 23.368999999999996 26.771000000000004 23.344999999999995 27.009000000000004 23.295999999999996 27.240000000000006 C 23.263108714210937 27.46597334778371 23.138244588464683 27.668289423992853 22.950999999999997 27.799000000000007 C 22.769999999999996 27.927000000000007 22.455 27.991000000000007 22.006999999999998 27.991000000000007 Z M 18.847 25.12 C 19.162000000000003 25.12 19.447000000000003 25.036 19.700000000000003 24.87 C 19.967000000000002 24.69 20.173000000000002 24.452 20.318 24.156000000000002 C 20.475 23.861 20.554000000000002 23.533 20.554000000000002 23.173000000000002 C 20.554000000000002 22.801000000000002 20.475 22.473000000000003 20.318 22.191000000000003 C 20.171433893912383 21.907262593503987 19.951901316546607 21.66770974964888 19.682000000000002 21.497000000000003 C 19.42597184298447 21.320329086925344 19.122066323459126 21.226121865028855 18.811000000000003 21.227000000000004 C 18.459000000000003 21.227000000000004 18.145000000000003 21.317000000000004 17.866000000000003 21.497000000000003 C 17.6 21.677000000000003 17.382000000000005 21.914000000000005 17.212000000000003 22.210000000000004 C 17.055000000000003 22.505000000000006 16.976000000000003 22.840000000000003 16.976000000000003 23.212000000000003 C 16.976000000000003 23.559000000000005 17.055000000000003 23.880000000000003 17.212000000000003 24.176000000000002 C 17.382000000000005 24.458000000000002 17.606 24.69 17.884000000000004 24.869000000000003 C 18.174000000000003 25.036000000000005 18.496000000000002 25.119000000000003 18.847000000000005 25.119000000000003 Z M 28.572 27.837 C 28.03210224911879 27.838053848077255 27.498668635088663 27.71955099015891 27.009999999999998 27.49 C 26.508870319751622 27.24244106411578 26.058990021555083 26.902486268645998 25.683999999999997 26.488 C 25.2893948708199 26.052445540247767 24.975799092803392 25.54987952018675 24.758 25.003999999999998 C 24.53880934254887 24.418909503597153 24.42800166095526 23.79879312036686 24.430999999999997 23.174 C 24.430999999999997 22.531 24.54 21.921 24.758 21.343 C 24.97543202512972 20.78518878924181 25.288828155705534 20.269743533445947 25.683999999999997 19.820000000000004 C 26.072 19.37 26.513999999999996 19.017 27.009999999999998 18.76 C 27.492728654017217 18.509508182154946 28.028155657215766 18.3775367377046 28.572 18.375 C 29.165 18.375 29.68 18.503 30.116 18.76 C 30.564 19.004 30.933 19.351000000000003 31.224 19.8 C 31.526 20.238 31.756 20.745 31.914 21.323 C 32.071 21.889 32.15 22.486 32.15 23.116 C 32.166553177917606 23.73334822401749 32.09311594585364 24.34981673171045 31.932 24.946 C 31.79943609616175 25.48338024264352 31.571854949808408 25.99272852257719 31.259999999999998 26.45 C 30.97 26.874 30.599999999999998 27.214 30.151999999999997 27.471 C 29.703999999999997 27.715 29.176999999999996 27.837 28.571999999999996 27.837 Z M 28.953 25.12 C 29.268 25.12 29.559 25.036 29.825 24.87 C 30.091 24.69 30.303 24.452 30.461 24.156000000000002 C 30.618 23.861 30.697 23.533 30.697 23.173000000000002 C 30.697 22.813000000000002 30.618 22.493000000000002 30.461 22.21 C 30.324946965885825 21.924764481750962 30.110618166251495 21.68407809510658 29.843 21.516000000000002 C 29.576999999999998 21.336000000000002 29.274 21.246000000000002 28.935 21.246000000000002 C 28.607999999999997 21.246000000000002 28.305 21.330000000000002 28.026999999999997 21.496000000000002 C 27.75696580816222 21.666984597574476 27.53742099577239 21.90689598847217 27.391 22.191000000000003 C 27.231948832439446 22.493634775628998 27.15083741962406 22.831140739123537 27.154999999999998 23.173000000000002 C 27.154999999999998 23.533 27.233999999999998 23.861 27.391 24.156000000000002 C 27.561 24.452 27.779 24.69 28.044999999999998 24.869000000000003 C 28.323999999999998 25.036000000000005 28.625999999999998 25.119000000000003 28.953 25.119000000000003 Z M 32.077 32 C 31.641 32 31.326999999999998 31.93 31.133 31.788 C 30.946700421920056 31.670642994014845 30.815501358092916 31.483215759976073 30.769 31.268 C 30.719973957037286 31.04013288229705 30.70181121720468 30.806708040744642 30.715 30.574 L 30.715 19.088 C 30.76835778921368 18.93137209219741 30.86219853472567 18.791645982151984 30.987 18.683 C 31.107999999999997 18.58 31.259999999999998 18.503 31.441 18.451999999999998 C 31.634999999999998 18.4 31.852999999999998 18.374999999999996 32.095 18.374999999999996 C 32.531 18.374999999999996 32.839999999999996 18.444999999999997 33.022 18.586999999999996 C 33.205652061955945 18.7125911534304 33.33022311311751 18.907571929161552 33.367 19.126999999999995 C 33.403 19.331999999999994 33.421 19.562999999999995 33.421 19.819999999999997 L 33.421 30.592999999999996 C 33.421 30.836999999999996 33.397 31.062999999999995 33.348 31.267999999999997 C 33.31361595466848 31.483071112642026 33.187792014775376 31.672718790162058 33.003 31.787999999999997 C 32.822 31.928999999999995 32.513 31.999999999999996 32.077 31.999999999999996 Z M 38.738 27.991 C 38.192247242158864 27.993734372819095 37.65266162572738 27.875571953018277 37.158 27.645 C 36.67328375684563 27.413282600214167 36.240830802250116 27.08528523732662 35.887 26.681 C 35.51493928868918 26.242043569703895 35.225588641511564 25.739237527067377 35.033 25.197000000000003 C 34.83452556789148 24.58722819386428 34.736579437289095 23.949227363836965 34.743 23.308000000000007 L 34.743 19.82 C 34.743 19.563 34.767 19.326 34.815000000000005 19.107 C 34.86166132112328 18.89125617006547 34.98449624169743 18.69954849055668 35.161 18.567 C 35.354 18.427 35.675000000000004 18.355 36.123000000000005 18.355 C 36.571000000000005 18.355 36.886 18.426000000000002 37.068000000000005 18.567 C 37.255389006930436 18.698023615765674 37.3802549919483 18.90070463492511 37.413000000000004 19.127 C 37.461000000000006 19.345 37.48500000000001 19.581999999999997 37.48500000000001 19.839 L 37.48500000000001 23.308999999999997 C 37.48500000000001 23.680999999999997 37.54500000000001 24.008999999999997 37.66700000000001 24.290999999999997 C 37.80000000000001 24.560999999999996 37.98700000000001 24.766999999999996 38.23000000000001 24.907999999999998 C 38.48400000000001 25.048999999999996 38.78000000000001 25.119999999999997 39.12000000000001 25.119999999999997 C 39.47000000000001 25.119999999999997 39.768000000000015 25.049999999999997 40.01000000000001 24.907999999999998 C 40.26400000000001 24.753999999999998 40.45800000000001 24.541999999999998 40.59000000000001 24.272 C 40.73600000000001 24.002 40.80900000000001 23.680999999999997 40.80900000000001 23.308 L 40.80900000000001 19.801 C 40.80900000000001 19.543999999999997 40.83300000000001 19.305999999999997 40.881000000000014 19.087999999999997 C 40.92511176213652 18.87659660142663 41.04904148977007 18.69034383157273 41.22700000000001 18.567999999999998 C 41.42000000000001 18.426 41.741000000000014 18.354999999999997 42.189000000000014 18.354999999999997 C 42.637000000000015 18.354999999999997 42.95200000000001 18.426 43.13300000000002 18.566999999999997 C 43.32047789174765 18.69793972373458 43.445369896644344 18.90066297805965 43.478000000000016 19.126999999999995 C 43.527000000000015 19.344999999999995 43.551000000000016 19.575999999999997 43.551000000000016 19.819999999999997 L 43.551000000000016 26.603999999999996 C 43.551000000000016 26.847999999999995 43.527000000000015 27.078999999999997 43.478000000000016 27.297999999999995 C 43.439499194973564 27.50621222809778 43.313992008008675 27.68810670195993 43.13300000000002 27.797999999999995 C 42.94000000000002 27.927999999999994 42.625000000000014 27.990999999999996 42.189000000000014 27.990999999999996 C 41.862000000000016 27.990999999999996 41.60800000000001 27.952999999999996 41.426000000000016 27.875999999999998 C 41.26898224691606 27.817121918575133 41.13078231196086 27.716926965732615 41.02600000000002 27.586 C 40.94490323871456 27.478142980620866 40.88918653118555 27.353378574190884 40.86300000000002 27.221 C 40.851624428216184 27.105674882100377 40.84561794070505 26.9898831506357 40.84500000000002 26.874 L 41.08100000000002 26.662 C 41.00598804348374 26.761260902116476 40.927265624498745 26.8576625084159 40.84500000000002 26.951 C 40.69563539105607 27.119172783297007 40.531660637957 27.273777550504704 40.35500000000002 27.413 C 40.161000000000016 27.567 39.93100000000002 27.703 39.66500000000002 27.818 C 39.37118302849399 27.93879525943975 39.055608510994944 27.997688885682827 38.73800000000002 27.991 Z M 46.45 28.01 C 46.001000000000005 28.01 45.68 27.946 45.487 27.818 C 45.31087024851798 27.68528359551611 45.18840375147321 27.493596904489525 45.142 27.278000000000002 C 45.105164368886996 27.042123913776077 45.08677531272047 26.803734876562764 45.087 26.565 L 45.087 19.84 C 45.087 19.583 45.105000000000004 19.346 45.142 19.127 C 45.18825963618949 18.911952640943277 45.31907900816197 18.724552989632834 45.505 18.607 C 45.699000000000005 18.466 46.019000000000005 18.395 46.467000000000006 18.395 C 46.903000000000006 18.395 47.212 18.465 47.394000000000005 18.607 C 47.57765206195595 18.732591153430402 47.70222311311752 18.927571929161555 47.739000000000004 19.147 C 47.787000000000006 19.365 47.81100000000001 19.608999999999998 47.81100000000001 19.878999999999998 L 47.81100000000001 26.586 C 47.81100000000001 26.83 47.787000000000006 27.067 47.739000000000004 27.299 C 47.70474168976185 27.514120170827375 47.57888608995459 27.70381556763833 47.394000000000005 27.819 C 47.212 27.947 46.897000000000006 28.012 46.449000000000005 28.012 Z M 46.45 16.987000000000002 C 45.99 16.987000000000002 45.662000000000006 16.917 45.468 16.775000000000002 C 45.27991913368529 16.64198947998543 45.15000106216349 16.441922807862326 45.105000000000004 16.216 C 45.067986427338425 15.973776136366144 45.04993161967462 15.729033188034535 45.051 15.484 C 45.051 15.214000000000002 45.075 14.970000000000002 45.123000000000005 14.752000000000002 C 45.16526233261912 14.52974700185456 45.296835526715874 14.334555999623106 45.487 14.212000000000003 C 45.68 14.071000000000003 46.007000000000005 14.000000000000004 46.467 14.000000000000004 C 46.915 14.000000000000004 47.237 14.070000000000004 47.43 14.212000000000003 C 47.617244588464686 14.342710576007157 47.742108714210936 14.5450266522163 47.775 14.771000000000003 C 47.823 15.002000000000002 47.848 15.246000000000002 47.848 15.503000000000002 C 47.848 15.760000000000002 47.823 16.004 47.775 16.235000000000003 C 47.74236989664433 16.46133702194035 47.61747789174763 16.664060276265417 47.43 16.795 C 47.236 16.923000000000002 46.91 16.987000000000002 46.45 16.987000000000002 Z M 50.757 27.991 C 50.309 27.991 49.988 27.927 49.794 27.799 C 49.617870248517974 27.66628359551611 49.495403751473205 27.474596904489523 49.449 27.259 C 49.4124506314691 27.023103284740383 49.39439564565713 26.78471060170448 49.394999999999996 26.546000000000003 L 49.394999999999996 19.762 C 49.394999999999996 19.518 49.419 19.293 49.467 19.088 C 49.5111117621365 18.876596601426634 49.63504148977005 18.690343831572733 49.812999999999995 18.568 C 50.00599999999999 18.439 50.327 18.375 50.775 18.375 C 51.163 18.375 51.446999999999996 18.433 51.629 18.548 C 51.809999999999995 18.651 51.925 18.779 51.974 18.933999999999997 C 52.034 19.087999999999997 52.064 19.234999999999996 52.064 19.377 C 52.064 19.505 52.077 19.595 52.101 19.647 L 51.991 20.012999999999998 C 52.016 19.819999999999997 52.107 19.627 52.264 19.435 C 52.434000000000005 19.229 52.64 19.049 52.882000000000005 18.895 C 53.12979573766826 18.73129794504284 53.398555815878744 18.601795279071577 53.681000000000004 18.509999999999998 C 53.971000000000004 18.419999999999998 54.25600000000001 18.374999999999996 54.535000000000004 18.374999999999996 C 55.115 18.374999999999996 55.63 18.489999999999995 56.078 18.721999999999998 C 56.538000000000004 18.939999999999998 56.926 19.261999999999997 57.24 19.685 C 57.555 20.108999999999998 57.791000000000004 20.61 57.949000000000005 21.188 C 58.124325377949845 21.79562847819064 58.209896490869646 22.425620530001797 58.203 23.058000000000003 L 58.203 26.565 C 58.203 26.809 58.179 27.047 58.13 27.278000000000002 C 58.09561595466848 27.49307111264203 57.96979201477538 27.682718790162063 57.785000000000004 27.798000000000002 C 57.604000000000006 27.928 57.289 27.991000000000003 56.841 27.991000000000003 C 56.381 27.991000000000003 56.054 27.927000000000003 55.861000000000004 27.799000000000003 C 55.68449624169743 27.666451509443323 55.56166132112328 27.474743829934532 55.51500000000001 27.259000000000004 C 55.466478288097846 27.024451898272297 55.442349872548895 26.785513560961142 55.443000000000005 26.546000000000003 L 55.443000000000005 23.058000000000003 C 55.443000000000005 22.672000000000004 55.382000000000005 22.345000000000002 55.261 22.075000000000003 C 55.14999158853545 21.816342014201105 54.95897542540447 21.60009068823447 54.716 21.458000000000002 C 54.474000000000004 21.304000000000002 54.177 21.227 53.826 21.227 C 53.476 21.227 53.172 21.304000000000002 52.918 21.458000000000002 C 52.66397147440897 21.61159992494739 52.45655430171662 21.831462128001284 52.318 22.094 C 52.186 22.364 52.119 22.685000000000002 52.119 23.058 L 52.119 26.565 C 52.119 26.809 52.095 27.047 52.046 27.278000000000002 C 52.01161595466848 27.49307111264203 51.885792014775376 27.682718790162063 51.701 27.798000000000002 C 51.52 27.928 51.205 27.991000000000003 50.757 27.991000000000003 Z M 61.081 28.01 C 60.633 28.01 60.312000000000005 27.946 60.119 27.818 C 59.94287024851798 27.68528359551611 59.82040375147321 27.493596904489525 59.774 27.278000000000002 C 59.737115827113136 27.042129570078874 59.7187264777361 26.80373673179111 59.719 26.565000000000005 L 59.719 19.84 C 59.719 19.583 59.737 19.346 59.774 19.127 C 59.82025963618949 18.911952640943277 59.95107900816197 18.724552989632834 60.137 18.607 C 60.331 18.466 60.651 18.395 61.099000000000004 18.395 C 61.535000000000004 18.395 61.844 18.465 62.026 18.607 C 62.20965206195595 18.732591153430402 62.33422311311752 18.927571929161555 62.371 19.147 C 62.419000000000004 19.365 62.443000000000005 19.608999999999998 62.443000000000005 19.878999999999998 L 62.443000000000005 26.586 C 62.443000000000005 26.83 62.419000000000004 27.067 62.371 27.299 C 62.33674168976185 27.514120170827375 62.210886089954585 27.70381556763833 62.026 27.819 C 61.844 27.947 61.529 28.012 61.081 28.012 Z M 61.081 16.987000000000002 C 60.621 16.987000000000002 60.294000000000004 16.917 60.101000000000006 16.775000000000002 C 59.91254296630461 16.642170577499055 59.782251237560466 16.442079708356257 59.73700000000001 16.216 C 59.70003884545093 15.97377020997394 59.68198434000049 15.729031358312437 59.68300000000001 15.484000000000004 C 59.68300000000001 15.214000000000002 59.70700000000001 14.970000000000002 59.75500000000001 14.752000000000002 C 59.79726233261913 14.52974700185456 59.92883552671588 14.334555999623106 60.11900000000001 14.212000000000003 C 60.312000000000005 14.071000000000003 60.63900000000001 14.000000000000004 61.099000000000004 14.000000000000004 C 61.547000000000004 14.000000000000004 61.86900000000001 14.070000000000004 62.062000000000005 14.212000000000003 C 62.24915601384048 14.342794262113216 62.37399419932478 14.54506830757908 62.407000000000004 14.771000000000003 C 62.456 15.002000000000002 62.480000000000004 15.246000000000002 62.480000000000004 15.503000000000002 C 62.480000000000004 15.760000000000002 62.456 16.004 62.407000000000004 16.235000000000003 C 62.3742549919483 16.461295365074893 62.249389006930436 16.663976384234328 62.062000000000005 16.795 C 61.868 16.923000000000002 61.542 16.987000000000002 61.08200000000001 16.987000000000002 Z M 65.389 27.991 C 64.941 27.991 64.61999999999999 27.927 64.426 27.799 C 64.24993689251703 27.666221921508598 64.1274877230369 27.474562351887517 64.081 27.259 C 64.04449917070276 27.023097697528396 64.02644447270846 26.784708814751824 64.027 26.546 L 64.027 19.762 C 64.027 19.518 64.051 19.293 64.1 19.088 C 64.14376594099227 18.876714913418933 64.2673431475956 18.690453616509565 64.445 18.568 C 64.63799999999999 18.439 64.95899999999999 18.375 65.407 18.375 C 65.795 18.375 66.079 18.433 66.261 18.548 C 66.442 18.651 66.557 18.779 66.606 18.933999999999997 C 66.666 19.087999999999997 66.696 19.234999999999996 66.696 19.377 C 66.696 19.505 66.709 19.595 66.733 19.647 L 66.62400000000001 20.012999999999998 C 66.64800000000001 19.819999999999997 66.739 19.627 66.89600000000002 19.435 C 67.06600000000002 19.229 67.27200000000002 19.049 67.51400000000001 18.895 C 67.76800000000001 18.727999999999998 68.034 18.599999999999998 68.31300000000002 18.509999999999998 C 68.60300000000002 18.419999999999998 68.88800000000002 18.374999999999996 69.16700000000002 18.374999999999996 C 69.74700000000001 18.374999999999996 70.26200000000001 18.489999999999995 70.71000000000002 18.721999999999998 C 71.17000000000002 18.939999999999998 71.55800000000002 19.261999999999997 71.87300000000002 19.685 C 72.18700000000001 20.108999999999998 72.42300000000002 20.61 72.58100000000002 21.188 C 72.75632537794986 21.79562847819064 72.84189649086966 22.42562053000179 72.83500000000002 23.057999999999996 L 72.83500000000002 26.565 C 72.83500000000002 26.809 72.81100000000002 27.047 72.76300000000002 27.278000000000002 C 72.72850812337406 27.4932978977096 72.60226648887593 27.683025209672106 72.41700000000002 27.798000000000002 C 72.23600000000002 27.928 71.92100000000002 27.991000000000003 71.47300000000001 27.991000000000003 C 71.01300000000002 27.991000000000003 70.686 27.927000000000003 70.49300000000001 27.799000000000003 C 70.31649624169744 27.666451509443323 70.19366132112329 27.474743829934532 70.147 27.259000000000004 C 70.09847828809785 27.024451898272297 70.0743498725489 26.785513560961142 70.075 26.546000000000003 L 70.075 23.058000000000003 C 70.075 22.672000000000004 70.015 22.345000000000002 69.893 22.075000000000003 C 69.78193137316873 21.816380146350976 69.59093015133134 21.6001457355736 69.348 21.458000000000002 C 69.106 21.304000000000002 68.809 21.227 68.458 21.227 C 68.108 21.227 67.804 21.304000000000002 67.55 21.458000000000002 C 67.29597147440897 21.61159992494739 67.08855430171663 21.831462128001284 66.95 22.094 C 66.818 22.364 66.751 22.685000000000002 66.751 23.058 L 66.751 26.565 C 66.751 26.809 66.727 27.047 66.67800000000001 27.278000000000002 C 66.64374168976187 27.49312017082738 66.51788608995459 27.682815567638333 66.33300000000001 27.798000000000002 C 66.15200000000002 27.928 65.83700000000002 27.991000000000003 65.38900000000001 27.991000000000003 Z M 75.55 28.01 C 75.11399999999999 28.01 74.8 27.946 74.606 27.818 C 74.42094785926876 27.690306594477793 74.29094244647435 27.49744142165092 74.24199999999999 27.278000000000002 C 74.20503884545091 27.035770209973943 74.18698434000048 26.791031358312438 74.18799999999999 26.546000000000003 L 74.18799999999999 15.446000000000003 C 74.18799999999999 15.188000000000002 74.21199999999999 14.951000000000004 74.25999999999999 14.732000000000003 C 74.30650135809292 14.516784240023929 74.43770042192006 14.329357005985159 74.624 14.212000000000003 C 74.817 14.071000000000003 75.13199999999999 14.000000000000004 75.568 14.000000000000004 C 76.01599999999999 14.000000000000004 76.331 14.070000000000004 76.51299999999999 14.212000000000003 C 76.69635924170946 14.3377013934399 76.82057717781497 14.532694665233418 76.85699999999999 14.752000000000002 C 76.90599999999999 14.970000000000002 76.92999999999998 15.208000000000002 76.92999999999998 15.465000000000002 L 76.92999999999998 19.396 C 77.14799999999998 19.152 77.42699999999998 18.921 77.76599999999998 18.702 C 78.11599999999997 18.484 78.52799999999998 18.375 79.00099999999998 18.375 C 79.75099999999998 18.375 80.42299999999997 18.58 81.01599999999998 18.991 C 81.62199999999997 19.39 82.09999999999998 19.942 82.45099999999998 20.649 C 82.81499999999998 21.355 82.99599999999998 22.165 82.99599999999998 23.077 L 82.99599999999998 26.565 C 82.99599999999998 26.822000000000003 82.97199999999998 27.060000000000002 82.92399999999998 27.278000000000002 C 82.8773386788767 27.49374382993453 82.75450375830255 27.685451509443322 82.57799999999997 27.818 C 82.39699999999998 27.946 82.07599999999998 28.011000000000003 81.61599999999997 28.011000000000003 C 81.19199999999996 28.011000000000003 80.87699999999997 27.947000000000003 80.67099999999998 27.818 C 80.48639538198402 27.69005619781823 80.3567837973617 27.497245576066014 80.30799999999998 27.278000000000002 C 80.2710388454509 27.035770209973943 80.25298434000047 26.791031358312438 80.25399999999998 26.546000000000003 L 80.25399999999998 23.058000000000003 C 80.25399999999998 22.685000000000002 80.19399999999997 22.370000000000005 80.07199999999997 22.113000000000003 C 79.95788206594204 21.851356951571013 79.76807198273715 21.62985380860164 79.52699999999997 21.477000000000004 C 79.29699999999997 21.323000000000004 79.01299999999998 21.247000000000003 78.67399999999998 21.247000000000003 C 78.22599999999998 21.247000000000003 77.83199999999998 21.394000000000002 77.49399999999997 21.689000000000004 C 77.16599999999997 21.972000000000005 76.97899999999997 22.319000000000003 76.92999999999998 22.730000000000004 L 76.92999999999998 26.565000000000005 C 76.92999999999998 26.822000000000006 76.90599999999998 27.060000000000006 76.85699999999999 27.278000000000006 C 76.80830833833934 27.49728510516367 76.67867600521879 27.690126592450437 76.49399999999999 27.818000000000005 C 76.31299999999999 27.946000000000005 75.99799999999999 28.011000000000006 75.54999999999998 28.011000000000006 Z M 91.638 27.991 C 91.19000000000001 27.991 90.857 27.908 90.63900000000001 27.741 C 90.44394945425609 27.596000668747376 90.3292841610183 27.367041167363197 90.33000000000001 27.124 L 90.51200000000001 26.796999999999997 C 90.43900000000002 26.924999999999997 90.30000000000001 27.086 90.09400000000001 27.278 C 89.888 27.458 89.62200000000001 27.625 89.295 27.779 C 88.968 27.921 88.562 27.991 88.078 27.991 C 87.521 27.991 86.988 27.863 86.48 27.605999999999998 C 85.97386889008214 27.341345433935903 85.5236220836956 26.98141963094214 85.15400000000001 26.546 C 84.76372837495057 26.078614719003117 84.45107811222977 25.551566057980246 84.22800000000001 24.985 C 84.0088309306675 24.399903584095135 83.89802396316783 23.779791197170358 83.90100000000001 23.155 C 83.90100000000001 22.525000000000002 84.01100000000001 21.927 84.22800000000001 21.362000000000002 C 84.45800000000001 20.784000000000002 84.76700000000001 20.276000000000003 85.15400000000001 19.839000000000002 C 85.55400000000002 19.389000000000003 86.00200000000001 19.036 86.498 18.779000000000003 C 86.98562805372057 18.524371744567436 87.52789677530669 18.39223664468728 88.078 18.394000000000002 C 88.526 18.394000000000002 88.908 18.464000000000002 89.22200000000001 18.606 C 89.537 18.734 89.798 18.889000000000003 90.00300000000001 19.068 C 90.22100000000002 19.248 90.38500000000002 19.422 90.49300000000001 19.588 L 90.34800000000001 19.319000000000003 C 90.33600000000001 19.011000000000003 90.433 18.779000000000003 90.63900000000001 18.625000000000004 C 90.85700000000001 18.458000000000002 91.19600000000001 18.375000000000004 91.656 18.375000000000004 C 92.09200000000001 18.375000000000004 92.40100000000001 18.445000000000004 92.58200000000001 18.587000000000003 C 92.76915601384049 18.717794262113216 92.89399419932478 18.92006830757908 92.927 19.146000000000004 C 92.97600000000001 19.376000000000005 93 19.621000000000006 93 19.878000000000004 L 93 26.527000000000005 C 93 26.771000000000004 92.976 27.009000000000004 92.927 27.240000000000006 C 92.89399419932478 27.46593169242093 92.76915601384049 27.668205737886794 92.58200000000001 27.799000000000007 C 92.40100000000001 27.927000000000007 92.08600000000001 27.991000000000007 91.638 27.991000000000007 Z M 88.47800000000001 25.12 C 88.793 25.12 89.078 25.036 89.331 24.87 C 89.598 24.69 89.804 24.452 89.949 24.156000000000002 C 90.106 23.861 90.185 23.533 90.185 23.173000000000002 C 90.185 22.801000000000002 90.10600000000001 22.473000000000003 89.949 22.191000000000003 C 89.80247382033312 21.907234731380367 89.58293254859244 21.6676724002671 89.313 21.497000000000003 C 89.05697184298447 21.320329086925344 88.75306632345912 21.226121865028855 88.44200000000001 21.227000000000004 C 88.09 21.227000000000004 87.77600000000001 21.317000000000004 87.49700000000001 21.497000000000003 C 87.23100000000001 21.677000000000003 87.01300000000002 21.914000000000005 86.84300000000002 22.210000000000004 C 86.68600000000002 22.505000000000006 86.60700000000001 22.840000000000003 86.60700000000001 23.212000000000003 C 86.60700000000001 23.559000000000005 86.686 23.880000000000003 86.84300000000002 24.176000000000002 C 87.01300000000002 24.458000000000002 87.23700000000002 24.69 87.51500000000001 24.869000000000003 C 87.80500000000002 25.036000000000005 88.12700000000001 25.119000000000003 88.47800000000001 25.119000000000003 Z" stroke-linecap="round" />
</g>
<g transform="matrix(1 0 0 0.8 521.63 533.03)" style="" id="77b041ed-5126-4120-8ba8-e624848628c3"  >
		<text xml:space="preserve" font-family="Lato" font-size="23" font-style="normal" font-weight="900" style="stroke: none; stroke-width: 1; stroke-dasharray: none; stroke-linecap: butt; stroke-dashoffset: 0; stroke-linejoin: miter; stroke-miterlimit: 4; fill: rgb(0,0,0); fill-rule: nonzero; opacity: 1; white-space: pre;" ><tspan x="-29.06" y="7.23" >E</tspan><tspan x="-10.96" y="7.23" >n</tspan><tspan x="4.59" y="7.23" >o</tspan><tspan x="18.85" y="7.23" >c</tspan></text>
</g>
</svg>